<svg width="17" height="16" viewBox="0 0 17 16" fill="none" xmlns="http://www.w3.org/2000/svg">
<path d="M3.85973 15.999V5.20386H0.215035V15.999H3.85973ZM2.03785 3.72907C3.30882 3.72907 4.09994 2.90013 4.09994 1.86422C4.07626 0.804959 3.30887 -0.000976562 2.06197 -0.000976562C0.815269 -0.000976562 0 0.804975 0 1.86422C0 2.90018 0.790923 3.72907 2.01406 3.72907H2.03774H2.03785ZM5.87706 15.999H9.52175V9.97048C9.52175 9.64784 9.54543 9.32554 9.64168 9.0949C9.90516 8.45027 10.5049 7.78262 11.5117 7.78262C12.8305 7.78262 13.3582 8.77258 13.3582 10.2238V15.999H17.0026V9.8091C17.0026 6.49325 15.2045 4.95042 12.8065 4.95042C10.8404 4.95042 9.9771 6.03237 9.49751 6.76928H9.52184V5.20363H5.87714C5.92497 6.21659 5.87714 15.9988 5.87714 15.9988L5.87706 15.999Z" fill="black"/>
</svg>
