<svg width="17" height="24" viewBox="0 0 17 24" fill="none" xmlns="http://www.w3.org/2000/svg">
<path d="M8.49999 0.416748C3.82374 0.416748 0.0416565 4.19883 0.0416565 8.87508C0.0416565 13.9138 5.38249 20.8617 7.58166 23.508C8.06499 24.088 8.94708 24.088 9.43041 23.508C11.6175 20.8617 16.9583 13.9138 16.9583 8.87508C16.9583 4.19883 13.1762 0.416748 8.49999 0.416748ZM8.49999 11.8959C6.83249 11.8959 5.47916 10.5426 5.47916 8.87508C5.47916 7.20758 6.83249 5.85425 8.49999 5.85425C10.1675 5.85425 11.5208 7.20758 11.5208 8.87508C11.5208 10.5426 10.1675 11.8959 8.49999 11.8959Z" fill="#1C1C1C"/>
</svg>
