<svg width="25" height="21" viewBox="0 0 25 21" fill="none" xmlns="http://www.w3.org/2000/svg">
<path d="M22.1666 0.833252H2.83329C1.50413 0.833252 0.416626 1.92075 0.416626 3.24992V17.7499C0.416626 19.0791 1.50413 20.1666 2.83329 20.1666H22.1666C23.4958 20.1666 24.5833 19.0791 24.5833 17.7499V3.24992C24.5833 1.92075 23.4958 0.833252 22.1666 0.833252ZM21.6833 5.96867L13.7808 10.9108C12.9954 11.4062 12.0045 11.4062 11.2191 10.9108L3.31663 5.96867C3.01454 5.77533 2.83329 5.44909 2.83329 5.09867C2.83329 4.28909 3.71538 3.80575 4.40413 4.22867L12.5 9.29158L20.5958 4.22867C21.2845 3.80575 22.1666 4.28909 22.1666 5.09867C22.1666 5.44909 21.9854 5.77533 21.6833 5.96867Z" fill="#1C1C1C"/>
</svg>
