<svg width="14" height="17" viewBox="0 0 14 17" fill="none" xmlns="http://www.w3.org/2000/svg">
<path d="M7.19001 16.967C7.0668 17.0109 6.93222 17.0109 6.80901 16.967C-0.170991 14.498 -0.0619908 8.64901 0.0180092 4.37701C0.0260092 3.91801 0.0340092 3.48401 0.0340092 3.06501C0.0326765 2.9087 0.0934264 2.75825 0.202921 2.6467C0.312415 2.53514 0.461704 2.47159 0.618009 2.47001C3.11201 2.47001 5.01001 1.73801 6.59301 0.16801C6.64633 0.114523 6.70969 0.0720851 6.77944 0.043129C6.8492 0.0141728 6.92398 -0.000732422 6.99951 -0.000732422C7.07504 -0.000732422 7.14982 0.0141728 7.21957 0.043129C7.28933 0.0720851 7.35269 0.114523 7.40601 0.16801C8.98901 1.73801 10.888 2.47001 13.383 2.47001C13.5391 2.47186 13.6882 2.53552 13.7975 2.64705C13.9067 2.75858 13.9673 2.90887 13.966 3.06501C13.966 3.48501 13.974 3.91801 13.983 4.37701C14.063 8.64801 14.172 14.498 7.19101 16.967H7.19001ZM12.817 4.40001C12.812 4.14201 12.807 3.89201 12.805 3.64801C10.467 3.54701 8.59901 2.82501 7.00001 1.40301C5.40001 2.82501 3.53301 3.54701 1.19701 3.64801L1.18401 4.40001C1.10401 8.69401 1.01401 13.555 7.00001 15.774C12.987 13.554 12.897 8.69401 12.816 4.40001H12.817ZM9.83301 6.43301C9.9426 6.54575 10.0039 6.69678 10.0039 6.85401C10.0039 7.01124 9.9426 7.16227 9.83301 7.27501L6.60601 10.567C6.55249 10.6223 6.48839 10.6663 6.41752 10.6963C6.34666 10.7264 6.27048 10.7419 6.19351 10.7419C6.11654 10.7419 6.04036 10.7264 5.96949 10.6963C5.89863 10.6663 5.83453 10.6223 5.78101 10.567L4.16701 8.92001C4.05718 8.80739 3.99571 8.65631 3.99571 8.49901C3.99571 8.3417 4.05718 8.19063 4.16701 8.07801C4.2206 8.02282 4.28473 7.97895 4.35558 7.94899C4.42643 7.91903 4.50258 7.9036 4.57951 7.9036C4.65644 7.9036 4.73258 7.91903 4.80344 7.94899C4.87429 7.97895 4.93842 8.02282 4.99201 8.07801L6.19301 9.30401L9.00801 6.43201C9.0616 6.37682 9.12573 6.33295 9.19658 6.30299C9.26744 6.27303 9.34358 6.2576 9.42051 6.2576C9.49744 6.2576 9.57358 6.27303 9.64444 6.30299C9.71529 6.33295 9.77942 6.37682 9.83301 6.43201V6.43301Z" fill="#787878"/>
</svg>
