<svg width="18" height="14" viewBox="0 0 18 14" fill="none" xmlns="http://www.w3.org/2000/svg">
<path d="M17.719 1.65632C17.0672 1.93749 16.3672 2.12756 15.6312 2.213C16.3824 1.77569 16.9578 1.08271 17.2295 0.257952C16.516 0.66998 15.7351 0.960048 14.9207 1.11556C14.258 0.428779 13.313 0 12.2675 0C10.2607 0 8.63311 1.58169 8.63311 3.53391C8.63311 3.81052 8.66516 4.08038 8.72676 4.33947C5.70575 4.19186 3.02744 2.78497 1.2347 0.647183C0.921659 1.16929 0.742478 1.77633 0.742478 2.42402C0.742478 3.64991 1.38427 4.73153 2.35946 5.36512C1.78217 5.34773 1.21754 5.19623 0.712779 4.9233V4.96795C0.712779 6.68033 1.96554 8.10817 3.6285 8.4329C3.32302 8.51427 3.00243 8.55679 2.67076 8.55679C2.43627 8.55679 2.20876 8.53521 1.98651 8.49457C2.44908 9.89809 3.7915 10.9197 5.38164 10.9486C4.13761 11.8967 2.57008 12.4619 0.867562 12.4619C0.574324 12.4619 0.284511 12.4449 0 12.4115C1.60887 13.4145 3.51914 14 5.57194 14C12.2576 14 15.914 8.61508 15.914 3.94522C15.914 3.79191 15.9105 3.63974 15.9029 3.48812C16.6153 2.98716 17.2303 2.36688 17.719 1.65632Z" fill="black"/>
</svg>
